<svg id="Layer_1" data-name="Layer 1" xmlns="http://www.w3.org/2000/svg" viewBox="0 0 512 471.94"><defs><style>.cls-1,.cls-2{fill:#fff;}.cls-2{stroke:#fff;}.cls-2,.cls-3{stroke-miterlimit:10;stroke-width:15px;}.cls-3{fill:none;stroke:#000;opacity:0.25;}</style></defs><title>box-shadow</title><path class="cls-1" d="M67.18,68.39h-.1a10,10,0,0,0,0,20h.1a10,10,0,0,0,0-20Z" transform="translate(0 -20.5)"/><path class="cls-1" d="M116.71,68.39h-.1a10,10,0,0,0,0,20h.1a10,10,0,0,0,0-20Z" transform="translate(0 -20.5)"/><path class="cls-1" d="M166.24,68.39h-.1a10,10,0,0,0,0,20h.1a10,10,0,0,0,0-20Z" transform="translate(0 -20.5)"/><path class="cls-1" d="M444.31,68.39H251.38a10,10,0,0,0,0,20H444.31a10,10,0,1,0,0-20Z" transform="translate(0 -20.5)"/><path class="cls-1" d="M262.89,472.44a10,10,0,1,0,7.07,2.93A10.09,10.09,0,0,0,262.89,472.44Z" transform="translate(0 -20.5)"/><path class="cls-1" d="M480.23,20.5H31.77A31.8,31.8,0,0,0,0,52.27v408.4a31.8,31.8,0,0,0,31.77,31.77H221a10,10,0,1,0,0-20H31.77A11.78,11.78,0,0,1,20,460.67V136.29H492V460.67a11.78,11.78,0,0,1-11.77,11.77H303.67a10,10,0,0,0,0,20H480.23A31.8,31.8,0,0,0,512,460.67V52.27A31.8,31.8,0,0,0,480.23,20.5ZM20,116.29v-64A11.78,11.78,0,0,1,31.77,40.5H480.23A11.78,11.78,0,0,1,492,52.27v64Z" transform="translate(0 -20.5)"/><rect class="cls-2" x="146.25" y="318.5" width="200" height="50"/><polyline class="cls-3" points="162.75 389.5 365.75 389.5 365.75 353.5"/></svg>