<?xml version="1.0" encoding="UTF-8" standalone="no"?>
<!DOCTYPE svg PUBLIC "-//W3C//DTD SVG 1.1//EN" "http://www.w3.org/Graphics/SVG/1.1/DTD/svg11.dtd">
<svg version="1.1" xmlns="http://www.w3.org/2000/svg" xmlns:xlink="http://www.w3.org/1999/xlink" preserveAspectRatio="xMidYMid meet" viewBox="0 0 640 640" width="640" height="640"><defs><path d="M517.85 53.83L518.81 53.93L519.77 54.07L520.71 54.24L521.65 54.45L522.56 54.7L523.46 54.98L524.35 55.29L525.22 55.64L526.07 56.02L526.91 56.43L527.72 56.88L528.52 57.35L529.3 57.85L530.05 58.39L530.79 58.95L531.5 59.53L532.18 60.15L532.85 60.78L533.49 61.45L534.1 62.14L534.69 62.85L535.25 63.58L535.78 64.34L536.28 65.11L536.76 65.91L537.2 66.73L537.61 67.56L537.99 68.41L538.34 69.28L538.65 70.17L538.93 71.07L539.18 71.99L539.39 72.92L539.56 73.86L539.7 74.82L539.8 75.79L539.86 76.77L539.88 77.76L539.88 509.76L539.86 510.74L539.8 511.72L539.7 512.69L539.56 513.65L539.39 514.59L539.18 515.52L538.93 516.44L538.65 517.34L538.34 518.23L537.99 519.1L537.61 519.95L537.2 520.78L536.76 521.6L536.28 522.4L535.78 523.17L535.25 523.93L534.69 524.66L534.1 525.37L533.49 526.06L532.85 526.73L532.18 527.36L531.5 527.98L530.79 528.56L530.05 529.12L529.3 529.66L528.52 530.16L527.72 530.63L526.91 531.08L526.07 531.49L525.22 531.87L524.35 532.22L523.46 532.53L522.56 532.81L521.65 533.06L520.71 533.27L519.77 533.44L518.81 533.58L517.85 533.68L516.87 533.74L515.88 533.76L83.88 533.76L82.89 533.74L81.91 533.68L80.94 533.58L79.98 533.44L79.04 533.27L78.11 533.06L77.19 532.81L76.29 532.53L75.41 532.22L74.54 531.87L73.68 531.49L72.85 531.08L72.03 530.63L71.24 530.16L70.46 529.66L69.7 529.12L68.97 528.56L68.26 527.98L67.57 527.36L66.91 526.73L66.27 526.06L65.65 525.37L65.07 524.66L64.51 523.93L63.98 523.17L63.47 522.4L63 521.6L62.56 520.78L62.14 519.95L61.76 519.1L61.42 518.23L61.1 517.34L60.82 516.44L60.58 515.52L60.37 514.59L60.19 513.65L60.06 512.69L59.96 511.72L59.9 510.74L59.88 509.76L59.88 77.76L59.9 76.77L59.96 75.79L60.06 74.82L60.19 73.86L60.37 72.92L60.58 71.99L60.82 71.07L61.1 70.17L61.42 69.28L61.76 68.41L62.14 67.56L62.56 66.73L63 65.91L63.47 65.11L63.98 64.34L64.51 63.58L65.07 62.85L65.65 62.14L66.27 61.45L66.91 60.78L67.57 60.15L68.26 59.53L68.97 58.95L69.7 58.39L70.46 57.85L71.24 57.35L72.03 56.88L72.85 56.43L73.68 56.02L74.54 55.64L75.41 55.29L76.29 54.98L77.19 54.7L78.11 54.45L79.04 54.24L79.98 54.07L80.94 53.93L81.91 53.83L82.89 53.78L83.88 53.76L515.88 53.76L516.87 53.78L517.85 53.83ZM75.88 509.76L75.88 510.08L75.9 510.41L75.94 510.73L75.98 511.05L76.04 511.37L76.11 511.68L76.19 511.98L76.29 512.28L76.39 512.58L76.51 512.87L76.63 513.15L76.77 513.43L76.92 513.7L77.08 513.97L77.24 514.23L77.42 514.48L77.61 514.72L77.8 514.96L78.01 515.19L78.22 515.41L78.44 515.62L78.67 515.83L78.91 516.02L79.15 516.21L79.4 516.39L79.66 516.56L79.93 516.71L80.2 516.86L80.48 517L80.76 517.13L81.05 517.24L81.35 517.35L81.65 517.44L81.96 517.52L82.27 517.59L82.58 517.65L82.9 517.7L83.22 517.73L83.55 517.75L83.88 517.76L515.88 517.76L516.21 517.75L516.53 517.73L516.86 517.7L517.18 517.65L517.49 517.59L517.8 517.52L518.11 517.44L518.41 517.35L518.7 517.24L518.99 517.13L519.28 517L519.55 516.86L519.83 516.71L520.09 516.56L520.35 516.39L520.6 516.21L520.85 516.02L521.08 515.83L521.31 515.62L521.53 515.41L521.75 515.19L521.95 514.96L522.15 514.72L522.33 514.48L522.51 514.23L522.68 513.97L522.84 513.7L522.98 513.43L523.12 513.15L523.25 512.87L523.36 512.58L523.47 512.28L523.56 511.98L523.65 511.68L523.72 511.37L523.77 511.05L523.82 510.73L523.85 510.41L523.87 510.08L523.88 509.76L523.88 165.76L75.88 165.76L75.88 509.76ZM83.55 69.76L83.22 69.78L82.9 69.81L82.58 69.86L82.27 69.92L81.96 69.99L81.65 70.07L81.35 70.16L81.05 70.27L80.76 70.38L80.48 70.51L80.2 70.65L79.93 70.8L79.66 70.95L79.4 71.12L79.15 71.3L78.91 71.49L78.67 71.68L78.44 71.89L78.22 72.1L78.01 72.32L77.8 72.55L77.61 72.79L77.42 73.03L77.24 73.28L77.08 73.54L76.92 73.81L76.77 74.08L76.63 74.36L76.51 74.64L76.39 74.93L76.29 75.23L76.19 75.53L76.11 75.83L76.04 76.14L75.98 76.46L75.94 76.78L75.9 77.1L75.88 77.43L75.88 77.76L75.88 149.76L523.88 149.76L523.88 77.76L523.87 77.43L523.85 77.1L523.82 76.78L523.77 76.46L523.72 76.14L523.65 75.83L523.56 75.53L523.47 75.23L523.36 74.93L523.25 74.64L523.12 74.36L522.98 74.08L522.84 73.81L522.68 73.54L522.51 73.28L522.33 73.03L522.15 72.79L521.95 72.55L521.75 72.32L521.53 72.1L521.31 71.89L521.08 71.68L520.85 71.49L520.6 71.3L520.35 71.12L520.09 70.95L519.83 70.8L519.55 70.65L519.28 70.51L518.99 70.38L518.7 70.27L518.41 70.16L518.11 70.07L517.8 69.99L517.49 69.92L517.18 69.86L516.86 69.81L516.53 69.78L516.21 69.76L515.88 69.76L83.88 69.76L83.55 69.76Z" id="m2MwsZv6t8"></path><path d="M118.49 85.9L119.77 86.07L121.03 86.31L122.26 86.61L123.46 86.98L124.64 87.41L125.79 87.89L126.91 88.43L127.99 89.03L129.04 89.68L130.05 90.39L131.02 91.14L131.96 91.94L132.85 92.78L133.69 93.67L134.49 94.61L135.25 95.58L135.95 96.59L136.6 97.64L137.2 98.73L137.74 99.84L138.23 100.99L138.65 102.17L139.02 103.37L139.32 104.61L139.56 105.86L139.74 107.14L139.84 108.44L139.88 109.76L139.84 111.07L139.74 112.37L139.56 113.65L139.32 114.9L139.02 116.14L138.65 117.34L138.23 118.52L137.74 119.67L137.2 120.78L136.6 121.87L135.95 122.92L135.25 123.93L134.49 124.9L133.69 125.84L132.85 126.73L131.96 127.57L131.02 128.37L130.05 129.12L129.04 129.83L127.99 130.48L126.91 131.08L125.79 131.62L124.64 132.1L123.46 132.53L122.26 132.9L121.03 133.2L119.77 133.44L118.49 133.61L117.19 133.72L115.88 133.76L114.56 133.72L113.26 133.61L111.98 133.44L110.73 133.2L109.5 132.9L108.29 132.53L107.11 132.1L105.97 131.62L104.85 131.08L103.76 130.48L102.72 129.83L101.7 129.12L100.73 128.37L99.8 127.57L98.91 126.73L98.06 125.84L97.26 124.9L96.51 123.93L95.81 122.92L95.15 121.87L94.56 120.78L94.01 119.67L93.53 118.52L93.1 117.34L92.73 116.14L92.43 114.9L92.19 113.65L92.02 112.37L91.91 111.07L91.88 109.76L91.91 108.44L92.02 107.14L92.19 105.86L92.43 104.61L92.73 103.37L93.1 102.17L93.53 100.99L94.01 99.84L94.56 98.73L95.15 97.64L95.81 96.59L96.51 95.58L97.26 94.61L98.06 93.67L98.91 92.78L99.8 91.94L100.73 91.14L101.7 90.39L102.72 89.68L103.76 89.03L104.85 88.43L105.97 87.89L107.11 87.41L108.29 86.98L109.5 86.61L110.73 86.31L111.98 86.07L113.26 85.9L114.56 85.79L115.88 85.76L117.19 85.79L118.49 85.9ZM113.35 102.16L112.2 102.65L111.15 103.3L110.22 104.1L109.42 105.03L108.77 106.08L108.29 107.23L107.98 108.46L107.88 109.76L107.98 111.05L108.29 112.28L108.77 113.43L109.42 114.48L110.22 115.41L111.15 116.21L112.2 116.86L113.35 117.35L114.58 117.65L115.88 117.76L117.18 117.65L118.41 117.35L119.55 116.86L120.6 116.21L121.53 115.41L122.33 114.48L122.98 113.43L123.47 112.28L123.77 111.05L123.88 109.76L123.77 108.46L123.47 107.23L122.98 106.08L122.33 105.03L121.53 104.1L120.6 103.3L119.55 102.65L118.41 102.16L117.18 101.86L115.88 101.76L114.58 101.86L113.35 102.16Z" id="b28fcw3vx"></path><path d="M182.49 85.9L183.77 86.07L185.03 86.31L186.26 86.61L187.46 86.98L188.64 87.41L189.79 87.89L190.91 88.43L191.99 89.03L193.04 89.68L194.05 90.39L195.02 91.14L195.96 91.94L196.85 92.78L197.69 93.67L198.49 94.61L199.25 95.58L199.95 96.59L200.6 97.64L201.2 98.73L201.74 99.84L202.23 100.99L202.65 102.17L203.02 103.37L203.32 104.61L203.56 105.86L203.74 107.14L203.84 108.44L203.88 109.76L203.84 111.07L203.74 112.37L203.56 113.65L203.32 114.9L203.02 116.14L202.65 117.34L202.23 118.52L201.74 119.67L201.2 120.78L200.6 121.87L199.95 122.92L199.25 123.93L198.49 124.9L197.69 125.84L196.85 126.73L195.96 127.57L195.02 128.37L194.05 129.12L193.04 129.83L191.99 130.48L190.91 131.08L189.79 131.62L188.64 132.1L187.46 132.53L186.26 132.9L185.03 133.2L183.77 133.44L182.49 133.61L181.19 133.72L179.88 133.76L178.56 133.72L177.26 133.61L175.98 133.44L174.73 133.2L173.5 132.9L172.29 132.53L171.11 132.1L169.97 131.62L168.85 131.08L167.76 130.48L166.72 129.83L165.7 129.12L164.73 128.37L163.8 127.57L162.91 126.73L162.06 125.84L161.26 124.9L160.51 123.93L159.81 122.92L159.15 121.87L158.56 120.78L158.01 119.67L157.53 118.52L157.1 117.34L156.73 116.14L156.43 114.9L156.19 113.65L156.02 112.37L155.91 111.07L155.88 109.76L155.91 108.44L156.02 107.14L156.19 105.86L156.43 104.61L156.73 103.37L157.1 102.17L157.53 100.99L158.01 99.84L158.56 98.73L159.15 97.64L159.81 96.59L160.51 95.58L161.26 94.61L162.06 93.67L162.91 92.78L163.8 91.94L164.73 91.14L165.7 90.39L166.72 89.68L167.76 89.03L168.85 88.43L169.97 87.89L171.11 87.41L172.29 86.98L173.5 86.61L174.73 86.31L175.98 86.07L177.26 85.9L178.56 85.79L179.88 85.76L181.19 85.79L182.49 85.9ZM177.35 102.16L176.2 102.65L175.15 103.3L174.22 104.1L173.42 105.03L172.77 106.08L172.29 107.23L171.98 108.46L171.88 109.76L171.98 111.05L172.29 112.28L172.77 113.43L173.42 114.48L174.22 115.41L175.15 116.21L176.2 116.86L177.35 117.35L178.58 117.65L179.88 117.76L181.18 117.65L182.41 117.35L183.55 116.86L184.6 116.21L185.53 115.41L186.33 114.48L186.98 113.43L187.47 112.28L187.77 111.05L187.88 109.76L187.77 108.46L187.47 107.23L186.98 106.08L186.33 105.03L185.53 104.1L184.6 103.3L183.55 102.65L182.41 102.16L181.18 101.86L179.88 101.76L178.58 101.86L177.35 102.16Z" id="cbiO7yzn"></path><path d="M246.49 85.9L247.77 86.07L249.03 86.31L250.26 86.61L251.46 86.98L252.64 87.41L253.79 87.89L254.91 88.43L255.99 89.03L257.04 89.68L258.05 90.39L259.02 91.14L259.96 91.94L260.85 92.78L261.69 93.67L262.49 94.61L263.25 95.58L263.95 96.59L264.6 97.64L265.2 98.73L265.74 99.84L266.23 100.99L266.65 102.17L267.02 103.37L267.32 104.61L267.56 105.86L267.74 107.14L267.84 108.44L267.88 109.76L267.84 111.07L267.74 112.37L267.56 113.65L267.32 114.9L267.02 116.14L266.65 117.34L266.23 118.52L265.74 119.67L265.2 120.78L264.6 121.87L263.95 122.92L263.25 123.93L262.49 124.9L261.69 125.84L260.85 126.73L259.96 127.57L259.02 128.37L258.05 129.12L257.04 129.83L255.99 130.48L254.91 131.08L253.79 131.62L252.64 132.1L251.46 132.53L250.26 132.9L249.03 133.2L247.77 133.44L246.49 133.61L245.19 133.72L243.88 133.76L242.56 133.72L241.26 133.61L239.98 133.44L238.73 133.2L237.5 132.9L236.29 132.53L235.11 132.1L233.97 131.62L232.85 131.08L231.76 130.48L230.72 129.83L229.7 129.12L228.73 128.37L227.8 127.57L226.91 126.73L226.06 125.84L225.26 124.9L224.51 123.93L223.81 122.92L223.15 121.87L222.56 120.78L222.01 119.67L221.53 118.52L221.1 117.34L220.73 116.14L220.43 114.9L220.19 113.65L220.02 112.37L219.91 111.07L219.88 109.76L219.91 108.44L220.02 107.14L220.19 105.86L220.43 104.61L220.73 103.37L221.1 102.17L221.53 100.99L222.01 99.84L222.56 98.73L223.15 97.64L223.81 96.59L224.51 95.58L225.26 94.61L226.06 93.67L226.91 92.78L227.8 91.94L228.73 91.14L229.7 90.39L230.72 89.68L231.76 89.03L232.85 88.43L233.97 87.89L235.11 87.41L236.29 86.98L237.5 86.61L238.73 86.31L239.98 86.07L241.26 85.9L242.56 85.79L243.88 85.76L245.19 85.79L246.49 85.9ZM241.35 102.16L240.2 102.65L239.15 103.3L238.22 104.1L237.42 105.03L236.77 106.08L236.29 107.23L235.98 108.46L235.88 109.76L235.98 111.05L236.29 112.28L236.77 113.43L237.42 114.48L238.22 115.41L239.15 116.21L240.2 116.86L241.35 117.35L242.58 117.65L243.88 117.76L245.18 117.65L246.41 117.35L247.55 116.86L248.6 116.21L249.53 115.41L250.33 114.48L250.98 113.43L251.47 112.28L251.77 111.05L251.88 109.76L251.77 108.46L251.47 107.23L250.98 106.08L250.33 105.03L249.53 104.1L248.6 103.3L247.55 102.65L246.41 102.16L245.18 101.86L243.88 101.76L242.58 101.86L241.35 102.16Z" id="b3iImED7VY"></path><path d="M155.88 470.71L435.45 470.71L435.45 394.18L155.88 394.18L155.88 470.71Z" id="a1QNDZZqOU"></path></defs><g><g><g><use xlink:href="#m2MwsZv6t8" opacity="1" fill="#ffffff" fill-opacity="1"></use><g><use xlink:href="#m2MwsZv6t8" opacity="1" fill-opacity="0" stroke="#000000" stroke-width="1" stroke-opacity="0"></use></g></g><g><use xlink:href="#b28fcw3vx" opacity="1" fill="#ffffff" fill-opacity="1"></use><g><use xlink:href="#b28fcw3vx" opacity="1" fill-opacity="0" stroke="#000000" stroke-width="1" stroke-opacity="0"></use></g></g><g><use xlink:href="#cbiO7yzn" opacity="1" fill="#ffffff" fill-opacity="1"></use><g><use xlink:href="#cbiO7yzn" opacity="1" fill-opacity="0" stroke="#000000" stroke-width="1" stroke-opacity="0"></use></g></g><g><use xlink:href="#b3iImED7VY" opacity="1" fill="#ffffff" fill-opacity="1"></use><g><use xlink:href="#b3iImED7VY" opacity="1" fill-opacity="0" stroke="#000000" stroke-width="1" stroke-opacity="0"></use></g></g><g><g><use xlink:href="#a1QNDZZqOU" opacity="1" fill-opacity="0" stroke="#ffffff" stroke-width="9" stroke-opacity="1"></use></g></g></g></g></svg>