<svg id="Layer_1" data-name="Layer 1" xmlns="http://www.w3.org/2000/svg" viewBox="0 0 512 468.38"><defs><style>.cls-1{fill:#fff;}</style></defs><title>computer</title><path class="cls-1" d="M463.29,22H126.23a7.61,7.61,0,0,0,0,15.21H463.29a33.54,33.54,0,0,1,33.5,33.5V341.3a33.53,33.53,0,0,1-33.5,33.5H48.71a33.53,33.53,0,0,1-33.5-33.5V70.71a33.54,33.54,0,0,1,33.5-33.5h47.1a7.61,7.61,0,1,0,0-15.21H48.71A48.76,48.76,0,0,0,0,70.71V341.3A48.76,48.76,0,0,0,48.71,390H171l-14.89,48.67H128.17a25.85,25.85,0,1,0,0,51.7H383.83a25.85,25.85,0,1,0,0-51.7H355.91L341,390H463.29A48.76,48.76,0,0,0,512,341.3V70.71A48.76,48.76,0,0,0,463.29,22ZM394.48,464.54a10.66,10.66,0,0,1-10.65,10.64H128.17a10.65,10.65,0,1,1,0-21.29H383.83A10.66,10.66,0,0,1,394.48,464.54ZM340,438.68H172L186.89,390H325.11Z" transform="translate(0 -22)"/><path class="cls-1" d="M463.84,269.53a7.6,7.6,0,0,0,7.61-7.6V70.71a8.17,8.17,0,0,0-8.16-8.16H48.71a8.16,8.16,0,0,0-8.15,8.16V318.54a7.6,7.6,0,0,0,7.6,7.6H463.84a7.6,7.6,0,0,0,7.61-7.6v-26.2a7.61,7.61,0,0,0-15.21,0v18.6H55.77V77.76H456.24V261.93A7.6,7.6,0,0,0,463.84,269.53Z" transform="translate(0 -22)"/><path class="cls-1" d="M262.32,344.89a7.6,7.6,0,0,0-13.88,3.49c-.66,6.87,7.84,11,12.83,6.22A7.7,7.7,0,0,0,262.32,344.89Z" transform="translate(0 -22)"/></svg>