<?xml version="1.0" encoding="UTF-8" standalone="no"?>
<!DOCTYPE svg PUBLIC "-//W3C//DTD SVG 1.1//EN" "http://www.w3.org/Graphics/SVG/1.1/DTD/svg11.dtd">
<svg version="1.1" xmlns="http://www.w3.org/2000/svg" xmlns:xlink="http://www.w3.org/1999/xlink" preserveAspectRatio="xMidYMid meet" viewBox="0 0 640 640" width="640" height="640"><defs><path d="M435.71 137.17L437.65 137.37L439.57 137.64L441.46 137.99L443.32 138.41L445.16 138.9L446.96 139.46L448.74 140.1L450.48 140.79L452.19 141.56L453.86 142.39L455.5 143.28L457.1 144.23L458.65 145.24L460.17 146.3L461.64 147.43L463.06 148.6L464.44 149.83L465.78 151.11L467.06 152.45L468.29 153.83L469.46 155.25L470.59 156.72L471.65 158.24L472.66 159.79L473.61 161.39L474.5 163.03L475.33 164.7L476.1 166.41L476.79 168.15L477.43 169.93L477.99 171.73L478.48 173.57L478.9 175.43L479.25 177.32L479.53 179.24L479.72 181.18L479.84 183.14L479.88 185.12L479.88 433.68L479.84 435.66L479.72 437.62L479.53 439.56L479.25 441.48L478.9 443.37L478.48 445.23L477.99 447.07L477.43 448.87L476.79 450.65L476.1 452.39L475.33 454.1L474.5 455.77L473.61 457.41L472.66 459.01L471.65 460.56L470.59 462.08L469.46 463.55L468.29 464.97L467.06 466.35L465.78 467.69L464.44 468.97L463.06 470.2L461.64 471.37L460.17 472.5L458.65 473.56L457.1 474.57L455.5 475.52L453.86 476.41L452.19 477.24L450.48 478L448.74 478.7L446.96 479.33L445.16 479.9L443.32 480.39L441.46 480.81L439.57 481.16L437.65 481.43L435.71 481.63L433.75 481.75L431.77 481.79L188.02 481.79L186.04 481.75L184.08 481.63L182.14 481.43L180.23 481.16L178.34 480.81L176.47 480.39L174.64 479.9L172.83 479.33L171.05 478.7L169.31 478L167.6 477.24L165.93 476.41L164.29 475.52L162.7 474.57L161.14 473.56L159.63 472.5L158.15 471.37L156.73 470.2L155.35 468.97L154.02 467.69L152.74 466.35L151.51 464.97L150.33 463.55L149.21 462.08L148.14 460.56L147.13 459.01L146.18 457.41L145.29 455.77L144.46 454.1L143.7 452.39L143 450.65L142.37 448.87L141.8 447.07L141.31 445.23L140.89 443.37L140.54 441.48L140.27 439.56L140.07 437.62L139.95 435.66L139.91 433.68L139.91 185.12L139.95 183.14L140.07 181.18L140.27 179.24L140.54 177.32L140.89 175.43L141.31 173.57L141.8 171.73L142.37 169.93L143 168.15L143.7 166.41L144.46 164.7L145.29 163.03L146.18 161.39L147.13 159.79L148.14 158.24L149.21 156.72L150.33 155.25L151.51 153.83L152.74 152.45L154.02 151.11L155.35 149.83L156.73 148.6L158.15 147.43L159.63 146.3L161.14 145.24L162.7 144.23L164.29 143.28L165.93 142.39L167.6 141.56L169.31 140.79L171.05 140.1L172.83 139.46L174.64 138.9L176.47 138.41L178.34 137.99L180.23 137.64L182.14 137.37L184.08 137.17L186.04 137.05L188.02 137.01L431.77 137.01L433.75 137.05L435.71 137.17ZM186.7 153.07L185.39 153.15L184.1 153.28L182.83 153.47L181.57 153.7L180.32 153.98L179.1 154.31L177.89 154.68L176.71 155.1L175.55 155.57L174.41 156.08L173.29 156.63L172.2 157.22L171.14 157.86L170.1 158.53L169.09 159.24L168.11 159.99L167.16 160.77L166.24 161.59L165.35 162.45L164.5 163.34L163.68 164.26L162.89 165.21L162.14 166.19L161.43 167.2L160.76 168.24L160.13 169.3L159.53 170.39L158.98 171.51L158.47 172.65L158.01 173.81L157.59 174.99L157.21 176.2L156.88 177.42L156.6 178.66L156.37 179.92L156.19 181.2L156.05 182.49L155.97 183.8L155.95 185.12L155.95 433.68L155.97 435L156.05 436.31L156.19 437.6L156.37 438.88L156.6 440.14L156.88 441.38L157.21 442.6L157.59 443.81L158.01 444.99L158.47 446.15L158.98 447.29L159.53 448.41L160.13 449.5L160.76 450.56L161.43 451.6L162.14 452.61L162.89 453.59L163.68 454.54L164.5 455.46L165.35 456.35L166.24 457.2L167.16 458.02L168.11 458.81L169.09 459.56L170.1 460.27L171.14 460.94L172.2 461.58L173.29 462.17L174.41 462.72L175.55 463.23L176.71 463.7L177.89 464.12L179.1 464.49L180.32 464.82L181.57 465.1L182.83 465.33L184.1 465.52L185.39 465.65L186.7 465.73L188.02 465.75L431.77 465.75L432.66 465.73L433.53 465.67L434.41 465.57L435.28 465.43L436.14 465.25L437 465.03L437.86 464.77L438.72 464.47L439.57 464.13L440.41 463.75L441.25 463.33L442.09 462.87L442.92 462.37L443.75 461.83L444.57 461.24L445.39 460.62L446.21 459.96L447.02 459.26L447.83 458.52L448.64 457.74L449.44 456.91L450.23 456.05L451.02 455.15L451.81 454.21L452.59 453.23L453.37 452.2L454.15 451.14L454.92 450.04L455.69 448.9L456.45 447.71L457.21 446.49L457.96 445.23L458.71 443.93L459.46 442.58L460.2 441.2L460.94 439.78L461.67 438.31L462.4 436.81L463.13 435.27L463.85 433.68L463.85 185.12L463.82 183.8L463.74 182.49L463.61 181.2L463.43 179.92L463.2 178.66L462.92 177.42L462.59 176.2L462.21 174.99L461.79 173.81L461.33 172.65L460.82 171.51L460.27 170.39L459.67 169.3L459.04 168.24L458.37 167.2L457.65 166.19L456.91 165.21L456.12 164.26L455.3 163.34L454.45 162.45L453.56 161.59L452.64 160.77L451.69 159.99L450.71 159.24L449.7 158.53L448.66 157.86L447.59 157.22L446.5 156.63L445.39 156.08L444.25 155.57L443.09 155.1L441.9 154.68L440.7 154.31L439.48 153.98L438.23 153.7L436.97 153.47L435.7 153.28L434.4 153.15L433.1 153.07L431.78 153.04L383.67 153.04L383.67 258.08L383.65 258.56L383.62 259.03L383.55 259.49L383.46 259.93L383.35 260.37L383.21 260.79L383.05 261.2L382.87 261.59L382.67 261.97L382.46 262.34L382.22 262.7L381.96 263.04L381.69 263.36L381.4 263.67L381.1 263.96L380.78 264.24L380.45 264.5L380.11 264.74L379.75 264.96L379.39 265.17L379.01 265.35L378.63 265.52L378.24 265.67L377.84 265.79L377.43 265.9L377.02 265.98L376.6 266.05L376.18 266.09L375.75 266.11L375.33 266.1L374.9 266.08L374.47 266.03L374.04 265.95L373.62 265.85L373.19 265.72L372.77 265.57L372.35 265.4L371.94 265.19L371.53 264.96L371.13 264.7L342.78 245.34L314.42 264.7L314.22 264.84L314.01 264.97L313.8 265.09L313.58 265.21L313.37 265.31L313.15 265.42L312.92 265.51L312.7 265.6L312.47 265.68L312.25 265.75L312.02 265.82L311.79 265.88L311.55 265.93L311.32 265.97L311.09 266.01L310.85 266.04L310.61 266.07L310.38 266.09L310.14 266.1L309.9 266.1L309.67 266.1L309.43 266.09L309.19 266.07L308.96 266.04L308.72 266.01L308.49 265.97L308.26 265.93L308.02 265.88L307.79 265.82L307.56 265.75L307.33 265.68L307.11 265.6L306.88 265.51L306.66 265.42L306.44 265.31L306.22 265.21L306.01 265.09L305.8 264.97L305.59 264.84L305.38 264.7L277.02 245.34L248.67 264.7L248.27 264.96L247.86 265.19L247.45 265.4L247.03 265.57L246.61 265.72L246.18 265.85L245.75 265.95L245.33 266.02L244.9 266.08L244.47 266.1L244.04 266.11L243.62 266.09L243.2 266.05L242.78 265.98L242.37 265.9L241.96 265.79L241.56 265.67L241.17 265.52L240.78 265.35L240.41 265.17L240.04 264.96L239.69 264.74L239.34 264.5L239.01 264.24L238.7 263.96L238.39 263.67L238.11 263.36L237.83 263.04L237.58 262.7L237.34 262.34L237.12 261.98L236.92 261.59L236.74 261.2L236.59 260.79L236.45 260.37L236.34 259.93L236.25 259.49L236.18 259.03L236.14 258.56L236.13 258.08L236.13 153.04L188.02 153.04L186.7 153.07ZM252.17 242.9L272.5 229.01L272.7 228.87L272.91 228.74L273.13 228.62L273.34 228.51L273.56 228.4L273.78 228.3L274 228.2L274.23 228.12L274.45 228.04L274.68 227.96L274.91 227.9L275.14 227.84L275.37 227.78L275.61 227.74L275.84 227.7L276.08 227.67L276.31 227.64L276.55 227.63L276.79 227.62L277.02 227.61L277.26 227.62L277.5 227.63L277.73 227.64L277.97 227.67L278.2 227.7L278.44 227.74L278.67 227.78L278.9 227.84L279.13 227.9L279.36 227.96L279.59 228.04L279.82 228.12L280.04 228.2L280.26 228.3L280.48 228.4L280.7 228.51L280.91 228.62L281.13 228.74L281.34 228.87L281.54 229.01L309.9 248.37L338.25 229.01L338.45 228.87L338.66 228.74L338.88 228.62L339.09 228.51L339.31 228.4L339.53 228.3L339.75 228.2L339.98 228.12L340.2 228.04L340.43 227.96L340.66 227.9L340.89 227.84L341.12 227.78L341.36 227.74L341.59 227.7L341.83 227.67L342.06 227.64L342.3 227.63L342.54 227.62L342.77 227.61L343.01 227.62L343.25 227.63L343.48 227.64L343.72 227.67L343.96 227.7L344.19 227.74L344.42 227.78L344.66 227.84L344.89 227.9L345.12 227.96L345.34 228.04L345.57 228.12L345.8 228.2L346.02 228.3L346.24 228.4L346.45 228.51L346.67 228.62L346.88 228.74L347.09 228.87L347.3 229.01L367.63 242.9L367.63 153.04L252.17 153.04L252.17 242.9Z" id="a5eaTYiVnJ"></path><path d="M318.67 49.23L318.97 49.26L319.28 49.3L319.58 49.35L319.88 49.41L320.18 49.49L320.47 49.57L320.76 49.67L321.05 49.78L321.34 49.9L321.62 50.03L321.9 50.18L322.17 50.33L322.44 50.5L322.7 50.68L322.96 50.87L323.21 51.07L323.45 51.29L323.69 51.51L357.25 84.58L357.62 84.97L357.95 85.37L358.26 85.78L358.53 86.2L358.77 86.62L358.98 87.06L359.16 87.5L359.31 87.95L359.44 88.41L359.53 88.86L359.6 89.32L359.64 89.78L359.65 90.24L359.63 90.69L359.59 91.15L359.53 91.6L359.44 92.05L359.32 92.49L359.18 92.92L359.02 93.34L358.84 93.76L358.63 94.16L358.4 94.56L358.15 94.94L357.88 95.3L357.58 95.65L357.27 95.99L356.94 96.3L356.59 96.6L356.22 96.88L355.83 97.14L355.43 97.37L355.01 97.58L354.57 97.77L354.11 97.93L353.64 98.07L353.16 98.17L352.66 98.25L352.15 98.3L351.62 98.32L351.3 98.31L351 98.31L350.7 98.29L350.42 98.27L350.14 98.23L349.87 98.19L349.6 98.12L349.33 98.05L349.05 97.95L348.77 97.84L348.49 97.7L348.19 97.54L347.89 97.35L347.56 97.14L347.22 96.9L346.87 96.63L346.48 96.33L346.08 95.99L345.65 95.62L345.18 95.21L344.69 94.76L344.16 94.27L343.6 93.74L343 93.16L342.35 92.53L341.67 91.86L340.93 91.14L340.15 90.36L339.31 89.53L338.43 88.65L337.48 87.71L336.48 86.71L335.42 85.65L334.29 84.53L333.1 83.34L331.84 82.09L330.51 80.77L329.11 79.38L327.63 77.91L326.08 76.38L326.08 120.7L326.07 121.03L326.05 121.36L326.02 121.68L325.97 122L325.91 122.31L325.84 122.62L325.76 122.93L325.67 123.23L325.56 123.53L325.45 123.82L325.32 124.1L325.18 124.38L325.03 124.66L324.88 124.92L324.71 125.18L324.53 125.43L324.34 125.68L324.15 125.92L323.94 126.15L323.73 126.37L323.51 126.58L323.28 126.79L323.04 126.98L322.79 127.17L322.54 127.35L322.28 127.52L322.02 127.67L321.74 127.82L321.46 127.96L321.18 128.09L320.89 128.2L320.59 128.31L320.29 128.4L319.99 128.48L319.67 128.55L319.36 128.61L319.04 128.66L318.72 128.69L318.39 128.71L318.06 128.72L317.73 128.71L317.4 128.69L317.08 128.66L316.76 128.61L316.44 128.55L316.13 128.48L315.83 128.4L315.52 128.31L315.23 128.2L314.94 128.09L314.65 127.96L314.37 127.82L314.1 127.67L313.83 127.52L313.58 127.35L313.32 127.17L313.08 126.98L312.84 126.79L312.61 126.58L312.39 126.37L312.18 126.15L311.97 125.92L311.77 125.68L311.59 125.43L311.41 125.18L311.24 124.92L311.08 124.66L310.94 124.38L310.8 124.1L310.67 123.82L310.55 123.53L310.45 123.23L310.36 122.93L310.27 122.62L310.2 122.31L310.15 122L310.1 121.68L310.07 121.36L310.05 121.03L310.04 120.7L310.04 76.38L290.12 96.01L289.88 96.24L289.64 96.45L289.38 96.66L289.12 96.85L288.86 97.03L288.59 97.2L288.31 97.35L288.03 97.5L287.75 97.63L287.46 97.75L287.17 97.86L286.87 97.96L286.57 98.04L286.27 98.12L285.97 98.18L285.67 98.23L285.36 98.27L285.05 98.3L284.75 98.31L284.44 98.32L284.13 98.31L283.82 98.29L283.52 98.26L283.21 98.21L282.91 98.16L282.61 98.09L282.31 98.01L282.01 97.92L281.72 97.82L281.43 97.71L281.14 97.58L280.86 97.44L280.58 97.29L280.31 97.13L280.04 96.96L279.78 96.78L279.52 96.58L279.27 96.37L279.03 96.15L278.79 95.92L278.56 95.68L278.35 95.44L278.14 95.18L277.95 94.92L277.77 94.66L277.6 94.39L277.45 94.11L277.3 93.83L277.17 93.55L277.05 93.26L276.94 92.97L276.84 92.67L276.75 92.37L276.68 92.07L276.62 91.77L276.57 91.47L276.53 91.16L276.5 90.85L276.49 90.55L276.48 90.24L276.49 89.93L276.51 89.62L276.54 89.32L276.58 89.01L276.64 88.71L276.71 88.41L276.78 88.11L276.87 87.81L276.98 87.52L277.09 87.22L277.22 86.94L277.35 86.66L277.5 86.38L277.66 86.1L277.83 85.84L278.02 85.57L278.21 85.32L278.42 85.07L278.64 84.82L278.87 84.58L312.43 51.51L312.67 51.29L312.91 51.07L313.16 50.87L313.42 50.68L313.68 50.5L313.95 50.33L314.22 50.18L314.5 50.03L314.78 49.9L315.07 49.78L315.36 49.67L315.65 49.57L315.95 49.49L316.24 49.41L316.54 49.35L316.84 49.3L317.15 49.26L317.45 49.23L317.76 49.21L318.06 49.2L318.37 49.21L318.67 49.23Z" id="g22D7sgxkv"></path><path d="M308.51 511.3L308.84 511.34L309.15 511.38L309.47 511.44L309.78 511.51L310.09 511.59L310.39 511.69L310.68 511.79L310.98 511.91L311.26 512.04L311.54 512.17L311.81 512.32L312.08 512.48L312.34 512.65L312.59 512.83L312.83 513.01L313.07 513.21L313.3 513.41L313.52 513.63L313.74 513.85L313.94 514.08L314.14 514.32L314.33 514.56L314.5 514.81L314.67 515.07L314.83 515.34L314.98 515.61L315.12 515.89L315.24 516.18L315.36 516.47L315.46 516.76L315.56 517.06L315.64 517.37L315.71 517.68L315.77 518L315.81 518.32L315.85 518.64L315.87 518.97L315.87 519.3L315.87 563.62L335.79 543.99L336.03 543.76L336.28 543.55L336.53 543.34L336.79 543.15L337.05 542.97L337.33 542.8L337.6 542.65L337.88 542.5L338.17 542.37L338.46 542.25L338.75 542.14L339.04 542.04L339.34 541.95L339.64 541.88L339.94 541.82L340.25 541.77L340.55 541.73L340.86 541.7L341.17 541.69L341.48 541.68L341.78 541.69L342.09 541.71L342.4 541.74L342.7 541.78L343.01 541.84L343.31 541.91L343.61 541.99L343.91 542.08L344.2 542.18L344.49 542.29L344.78 542.42L345.06 542.55L345.34 542.7L345.61 542.86L345.88 543.04L346.14 543.22L346.4 543.42L346.65 543.62L346.89 543.84L347.13 544.08L347.35 544.32L347.57 544.56L347.77 544.82L347.97 545.07L348.15 545.34L348.31 545.61L348.47 545.89L348.61 546.17L348.75 546.45L348.87 546.74L348.98 547.03L349.08 547.33L349.16 547.62L349.24 547.93L349.3 548.23L349.35 548.53L349.39 548.84L349.41 549.15L349.43 549.45L349.43 549.76L349.43 550.07L349.41 550.38L349.37 550.68L349.33 550.99L349.28 551.29L349.21 551.59L349.13 551.89L349.04 552.19L348.94 552.48L348.82 552.77L348.7 553.06L348.56 553.34L348.41 553.62L348.25 553.89L348.08 554.16L347.9 554.43L347.7 554.68L347.49 554.93L347.28 555.18L347.04 555.41L313.48 588.49L313.24 588.71L313 588.93L312.75 589.13L312.49 589.32L312.23 589.5L311.96 589.66L311.69 589.82L311.41 589.96L311.13 590.1L310.84 590.22L310.56 590.33L310.26 590.43L309.97 590.51L309.67 590.59L309.37 590.65L309.07 590.7L308.77 590.74L308.46 590.77L308.16 590.79L307.85 590.8L307.55 590.79L307.24 590.77L306.94 590.74L306.64 590.7L306.34 590.65L306.04 590.59L305.74 590.51L305.45 590.43L305.15 590.33L304.86 590.22L304.58 590.1L304.3 589.97L304.02 589.82L303.75 589.67L303.48 589.5L303.22 589.32L302.96 589.13L302.71 588.93L302.47 588.71L302.23 588.49L268.66 555.41L268.43 555.18L268.21 554.93L268.01 554.68L267.81 554.43L267.63 554.16L267.46 553.89L267.3 553.62L267.15 553.34L267.01 553.06L266.88 552.77L266.77 552.48L266.67 552.19L266.58 551.89L266.5 551.59L266.43 551.29L266.38 550.99L266.33 550.68L266.3 550.38L266.28 550.07L266.28 549.76L266.28 549.45L266.29 549.15L266.32 548.84L266.36 548.53L266.41 548.23L266.47 547.93L266.55 547.62L266.63 547.33L266.73 547.03L266.84 546.74L266.96 546.45L267.09 546.17L267.24 545.89L267.39 545.61L267.56 545.34L267.74 545.07L267.94 544.82L268.14 544.56L268.35 544.32L268.58 544.08L268.82 543.84L269.06 543.63L269.31 543.42L269.57 543.22L269.83 543.04L270.1 542.87L270.37 542.71L270.65 542.56L270.93 542.42L271.22 542.29L271.51 542.18L271.81 542.08L272.1 541.99L272.4 541.91L272.7 541.84L273.01 541.79L273.31 541.74L273.62 541.71L273.93 541.69L274.23 541.68L274.54 541.69L274.85 541.7L275.16 541.73L275.46 541.77L275.77 541.82L276.07 541.88L276.37 541.95L276.67 542.04L276.96 542.14L277.26 542.25L277.54 542.37L277.83 542.5L278.11 542.65L278.38 542.8L278.66 542.97L278.92 543.15L279.18 543.34L279.43 543.55L279.68 543.76L279.92 543.99L299.84 563.62L299.84 519.3L299.84 518.97L299.86 518.64L299.9 518.32L299.94 518L300 517.68L300.07 517.37L300.15 517.06L300.24 516.76L300.35 516.47L300.47 516.18L300.59 515.89L300.73 515.61L300.88 515.34L301.04 515.07L301.21 514.81L301.38 514.56L301.57 514.32L301.77 514.08L301.97 513.85L302.18 513.63L302.41 513.41L302.64 513.21L302.87 513.01L303.12 512.83L303.37 512.65L303.63 512.48L303.9 512.32L304.17 512.17L304.45 512.04L304.73 511.91L305.02 511.79L305.32 511.69L305.62 511.59L305.93 511.51L306.24 511.44L306.55 511.38L306.87 511.34L307.2 511.3L307.52 511.28L307.85 511.28L308.18 511.28L308.51 511.3Z" id="cuy7QKKVw"></path><path d="M526.5 293.24L526.8 293.27L527.11 293.32L527.41 293.37L527.71 293.44L528.01 293.52L528.31 293.61L528.6 293.71L528.89 293.82L529.18 293.95L529.46 294.09L529.74 294.23L530.01 294.4L530.28 294.57L530.54 294.75L530.8 294.95L531.05 295.15L531.29 295.37L531.53 295.6L564.61 329.17L564.83 329.4L565.04 329.65L565.25 329.9L565.44 330.15L565.61 330.42L565.78 330.68L565.94 330.96L566.08 331.23L566.22 331.52L566.34 331.8L566.45 332.09L566.54 332.38L566.63 332.68L566.71 332.98L566.77 333.28L566.82 333.58L566.86 333.88L566.89 334.18L566.91 334.49L566.91 334.79L566.91 335.1L566.89 335.4L566.86 335.71L566.82 336.01L566.77 336.31L566.71 336.61L566.63 336.91L566.54 337.2L566.45 337.5L566.34 337.78L566.22 338.07L566.08 338.35L565.94 338.63L565.78 338.9L565.61 339.17L565.44 339.43L565.25 339.69L565.04 339.94L564.83 340.18L564.61 340.42L531.53 373.99L531.29 374.22L531.05 374.44L530.8 374.64L530.54 374.84L530.28 375.02L530.01 375.2L529.74 375.36L529.46 375.5L529.18 375.64L528.89 375.77L528.6 375.88L528.31 375.98L528.01 376.07L527.71 376.15L527.41 376.22L527.11 376.27L526.8 376.32L526.49 376.35L526.19 376.37L525.88 376.38L525.57 376.37L525.26 376.36L524.96 376.33L524.65 376.29L524.35 376.24L524.04 376.18L523.74 376.1L523.44 376.02L523.15 375.92L522.86 375.81L522.57 375.69L522.28 375.56L522 375.41L521.73 375.25L521.46 375.09L521.19 374.91L520.93 374.71L520.68 374.51L520.43 374.3L520.19 374.07L519.96 373.83L519.74 373.59L519.54 373.34L519.34 373.08L519.16 372.82L518.98 372.55L518.82 372.28L518.67 372L518.54 371.71L518.41 371.43L518.3 371.14L518.2 370.84L518.11 370.55L518.03 370.25L517.96 369.95L517.91 369.64L517.86 369.34L517.83 369.03L517.81 368.72L517.8 368.42L517.81 368.11L517.82 367.8L517.85 367.49L517.89 367.19L517.94 366.88L518 366.58L518.07 366.28L518.16 365.98L518.26 365.69L518.37 365.39L518.49 365.11L518.62 364.82L518.77 364.54L518.92 364.26L519.09 363.99L519.27 363.73L519.46 363.47L519.67 363.22L519.88 362.97L520.11 362.73L539.74 342.81L495.42 342.81L495.09 342.81L494.76 342.79L494.44 342.75L494.12 342.71L493.8 342.65L493.49 342.58L493.19 342.5L492.89 342.4L492.59 342.3L492.3 342.18L492.01 342.06L491.74 341.92L491.46 341.77L491.2 341.61L490.94 341.44L490.69 341.27L490.44 341.08L490.2 340.88L489.97 340.68L489.75 340.46L489.54 340.24L489.33 340.01L489.14 339.78L488.95 339.53L488.77 339.28L488.6 339.02L488.45 338.75L488.3 338.48L488.16 338.2L488.03 337.92L487.92 337.63L487.81 337.33L487.72 337.03L487.64 336.72L487.57 336.41L487.51 336.1L487.46 335.78L487.43 335.45L487.41 335.13L487.4 334.8L487.41 334.46L487.43 334.14L487.46 333.81L487.51 333.49L487.57 333.18L487.64 332.87L487.72 332.56L487.81 332.26L487.92 331.96L488.03 331.67L488.16 331.39L488.3 331.11L488.45 330.84L488.6 330.57L488.77 330.31L488.95 330.06L489.14 329.81L489.33 329.58L489.54 329.35L489.75 329.13L489.97 328.91L490.2 328.71L490.44 328.51L490.69 328.32L490.94 328.15L491.2 327.98L491.46 327.82L491.74 327.67L492.01 327.53L492.3 327.41L492.59 327.29L492.89 327.19L493.19 327.09L493.49 327.01L493.8 326.94L494.12 326.88L494.44 326.84L494.76 326.8L495.09 326.78L495.42 326.78L539.74 326.78L520.11 306.86L519.89 306.62L519.67 306.37L519.47 306.12L519.27 305.86L519.09 305.59L518.93 305.32L518.77 305.05L518.62 304.77L518.49 304.48L518.37 304.19L518.26 303.9L518.16 303.61L518.08 303.31L518 303.01L517.94 302.7L517.89 302.4L517.85 302.09L517.82 301.79L517.81 301.48L517.8 301.17L517.81 300.86L517.83 300.56L517.86 300.25L517.91 299.95L517.96 299.64L518.03 299.34L518.11 299.04L518.2 298.74L518.3 298.45L518.41 298.16L518.54 297.87L518.68 297.59L518.83 297.31L518.99 297.04L519.16 296.77L519.34 296.51L519.54 296.25L519.75 296L519.96 295.76L520.2 295.52L520.44 295.29L520.68 295.08L520.94 294.87L521.2 294.68L521.46 294.5L521.73 294.33L522.01 294.18L522.29 294.03L522.57 293.9L522.86 293.78L523.15 293.67L523.45 293.57L523.75 293.49L524.05 293.41L524.35 293.35L524.65 293.3L524.96 293.26L525.27 293.23L525.57 293.22L525.88 293.21L526.19 293.22L526.5 293.24Z" id="bzRXCQE41"></path><path d="M92.67 293.23L92.98 293.26L93.28 293.3L93.59 293.35L93.89 293.41L94.19 293.49L94.49 293.57L94.78 293.67L95.07 293.78L95.36 293.9L95.65 294.03L95.93 294.18L96.2 294.33L96.47 294.5L96.74 294.68L97 294.87L97.25 295.08L97.5 295.29L97.74 295.52L97.97 295.76L98.19 296L98.4 296.25L98.59 296.51L98.78 296.77L98.95 297.04L99.11 297.31L99.26 297.59L99.39 297.87L99.52 298.16L99.63 298.45L99.74 298.74L99.83 299.04L99.9 299.34L99.97 299.64L100.03 299.95L100.07 300.25L100.1 300.56L100.12 300.87L100.13 301.17L100.13 301.48L100.11 301.79L100.08 302.1L100.04 302.4L99.99 302.71L99.93 303.01L99.86 303.31L99.77 303.61L99.67 303.9L99.56 304.2L99.44 304.48L99.31 304.77L99.16 305.05L99.01 305.33L98.84 305.6L98.66 305.86L98.47 306.12L98.26 306.38L98.05 306.62L97.82 306.86L78.19 326.78L122.51 326.78L122.84 326.79L123.17 326.81L123.49 326.84L123.81 326.88L124.13 326.94L124.44 327.01L124.75 327.09L125.05 327.19L125.34 327.29L125.63 327.41L125.92 327.54L126.2 327.67L126.47 327.82L126.74 327.98L127 328.15L127.25 328.33L127.49 328.51L127.73 328.71L127.96 328.91L128.18 329.13L128.4 329.35L128.6 329.58L128.8 329.82L128.98 330.06L129.16 330.31L129.33 330.57L129.49 330.84L129.64 331.11L129.77 331.39L129.9 331.68L130.02 331.97L130.12 332.26L130.22 332.56L130.3 332.87L130.37 333.18L130.43 333.5L130.47 333.82L130.5 334.14L130.52 334.47L130.53 334.8L130.52 335.13L130.5 335.45L130.47 335.78L130.43 336.1L130.37 336.41L130.3 336.72L130.22 337.03L130.12 337.33L130.02 337.63L129.9 337.92L129.77 338.2L129.64 338.48L129.49 338.75L129.33 339.02L129.16 339.28L128.98 339.53L128.8 339.78L128.6 340.02L128.4 340.24L128.18 340.47L127.96 340.68L127.73 340.89L127.49 341.08L127.25 341.27L127 341.45L126.74 341.61L126.47 341.77L126.2 341.92L125.92 342.06L125.63 342.19L125.34 342.3L125.05 342.41L124.75 342.5L124.44 342.58L124.13 342.65L123.81 342.71L123.49 342.76L123.17 342.79L122.84 342.81L122.51 342.82L78.19 342.82L97.82 362.73L98.05 362.97L98.26 363.22L98.47 363.47L98.66 363.73L98.84 363.99L99.01 364.26L99.16 364.54L99.31 364.82L99.44 365.11L99.56 365.39L99.67 365.69L99.77 365.98L99.86 366.28L99.93 366.58L99.99 366.88L100.04 367.19L100.08 367.49L100.11 367.8L100.13 368.11L100.13 368.42L100.12 368.72L100.1 369.03L100.07 369.34L100.03 369.64L99.97 369.95L99.9 370.25L99.83 370.55L99.74 370.85L99.63 371.14L99.52 371.43L99.39 371.72L99.26 372L99.11 372.28L98.95 372.55L98.78 372.82L98.59 373.08L98.4 373.34L98.19 373.59L97.97 373.83L97.74 374.07L97.5 374.3L97.25 374.51L97 374.72L96.74 374.91L96.47 375.09L96.2 375.26L95.93 375.41L95.65 375.56L95.36 375.69L95.07 375.81L94.78 375.92L94.48 376.02L94.19 376.1L93.89 376.18L93.58 376.24L93.28 376.29L92.97 376.33L92.67 376.36L92.36 376.37L92.05 376.38L91.74 376.37L91.44 376.35L91.13 376.32L90.82 376.27L90.52 376.22L90.22 376.15L89.92 376.07L89.62 375.98L89.33 375.88L89.04 375.77L88.75 375.64L88.47 375.5L88.19 375.35L87.92 375.19L87.65 375.02L87.39 374.84L87.13 374.64L86.88 374.43L86.64 374.21L86.4 373.98L53.33 340.42L53.1 340.19L52.89 339.94L52.69 339.69L52.5 339.43L52.32 339.17L52.15 338.9L52 338.63L51.85 338.35L51.72 338.07L51.6 337.79L51.49 337.5L51.39 337.21L51.3 336.91L51.23 336.61L51.16 336.31L51.11 336.01L51.07 335.71L51.04 335.4L51.03 335.1L51.02 334.8L51.03 334.49L51.04 334.19L51.07 333.88L51.11 333.58L51.16 333.28L51.23 332.98L51.3 332.68L51.39 332.38L51.49 332.09L51.6 331.8L51.72 331.52L51.85 331.24L52 330.96L52.15 330.69L52.32 330.42L52.5 330.16L52.69 329.9L52.89 329.65L53.1 329.4L53.33 329.17L86.4 295.61L86.64 295.38L86.88 295.16L87.13 294.95L87.39 294.75L87.65 294.57L87.92 294.4L88.19 294.24L88.47 294.09L88.75 293.95L89.04 293.82L89.33 293.71L89.63 293.61L89.92 293.52L90.22 293.44L90.52 293.37L90.83 293.32L91.13 293.27L91.44 293.24L91.75 293.22L92.05 293.21L92.36 293.22L92.67 293.23Z" id="c7VHm4KfBc"></path><path d="M492.65 94.07L493.07 94.07L493.63 94.07L494.34 94.08L495.18 94.08L496.15 94.09L497.23 94.1L498.41 94.11L499.69 94.12L501.06 94.13L502.51 94.14L504.02 94.15L505.6 94.16L507.24 94.17L508.91 94.18L510.62 94.2L512.36 94.21L514.12 94.22L519.4 94.26L521.14 94.27L522.85 94.29L524.52 94.3L526.16 94.31L527.74 94.32L529.25 94.33L530.7 94.34L532.07 94.35L533.35 94.36L534.53 94.37L535.61 94.38L536.58 94.39L537.42 94.39L538.13 94.4L538.7 94.4L539.11 94.4L539.38 94.41L539.47 94.41L539.8 94.42L540.12 94.44L540.44 94.47L540.76 94.52L541.07 94.58L541.38 94.65L541.68 94.73L541.98 94.83L542.27 94.93L542.56 95.05L542.84 95.17L543.12 95.31L543.39 95.46L543.65 95.62L543.91 95.78L544.16 95.96L544.4 96.15L544.63 96.34L544.86 96.54L545.08 96.76L545.29 96.98L545.5 97.2L545.69 97.44L545.88 97.68L546.05 97.93L546.22 98.19L546.38 98.45L546.52 98.72L546.66 99L546.79 99.28L546.9 99.57L547.01 99.86L547.1 100.16L547.19 100.46L547.26 100.77L547.32 101.08L547.36 101.4L547.4 101.72L547.42 102.04L547.43 102.37L547.77 149.49L547.77 149.82L547.75 150.15L547.72 150.47L547.68 150.79L547.62 151.11L547.55 151.42L547.47 151.73L547.38 152.03L547.28 152.33L547.16 152.62L547.04 152.91L546.9 153.19L546.75 153.47L546.59 153.73L546.43 154L546.25 154.25L546.06 154.5L545.87 154.74L545.66 154.97L545.45 155.19L545.23 155.41L545 155.61L544.76 155.81L544.51 156L544.26 156.18L544 156.35L543.73 156.51L543.46 156.66L543.18 156.8L542.89 156.93L542.6 157.04L542.3 157.15L542 157.24L541.69 157.33L541.38 157.4L541.06 157.46L540.74 157.5L540.42 157.54L540.09 157.56L539.75 157.56L539.43 157.56L539.1 157.54L538.78 157.5L538.46 157.46L538.15 157.4L537.84 157.33L537.53 157.25L537.23 157.16L536.94 157.05L536.65 156.94L536.37 156.81L536.09 156.68L535.82 156.53L535.55 156.37L535.29 156.21L535.04 156.03L534.8 155.84L534.56 155.65L534.33 155.45L534.11 155.24L533.9 155.02L533.69 154.79L533.49 154.55L533.31 154.31L533.13 154.06L532.96 153.8L532.8 153.54L532.65 153.27L532.51 152.99L532.39 152.71L532.27 152.42L532.16 152.12L532.07 151.82L531.98 151.52L531.91 151.21L531.85 150.9L531.8 150.58L531.77 150.26L531.75 149.93L531.74 149.6L531.53 121.64L529.06 124.12L526.71 126.47L524.49 128.7L522.39 130.82L520.4 132.81L518.53 134.7L516.77 136.48L515.11 138.15L513.55 139.72L512.09 141.19L510.73 142.57L509.45 143.86L508.26 145.05L507.15 146.16L506.13 147.19L505.17 148.13L504.29 149L503.47 149.8L502.71 150.53L502.02 151.19L501.37 151.78L500.78 152.32L500.24 152.8L499.74 153.23L499.28 153.6L498.86 153.93L498.47 154.21L498.1 154.45L497.76 154.66L497.45 154.83L497.14 154.97L496.85 155.08L496.57 155.16L496.3 155.22L496.02 155.27L495.74 155.3L495.46 155.32L495.16 155.32L494.85 155.33L494.53 155.33L494 155.31L493.49 155.26L492.99 155.19L492.51 155.08L492.04 154.95L491.59 154.79L491.15 154.6L490.73 154.39L490.33 154.16L489.94 153.9L489.57 153.62L489.22 153.33L488.89 153.01L488.58 152.68L488.29 152.33L488.01 151.97L487.76 151.59L487.53 151.2L487.32 150.8L487.14 150.38L486.97 149.96L486.83 149.53L486.72 149.09L486.62 148.65L486.56 148.2L486.52 147.74L486.5 147.29L486.51 146.83L486.55 146.37L486.61 145.92L486.7 145.46L486.82 145.01L486.97 144.56L487.15 144.12L487.36 143.68L487.59 143.25L487.86 142.83L488.16 142.42L488.49 142.03L488.86 141.64L520.19 110.3L492.23 110.1L491.46 110.06L490.73 109.97L490.04 109.82L489.38 109.63L488.77 109.38L488.2 109.1L487.66 108.77L487.17 108.4L486.72 107.99L486.3 107.56L485.93 107.09L485.59 106.6L485.3 106.08L485.04 105.54L484.83 104.99L484.65 104.42L484.51 103.84L484.42 103.25L484.36 102.65L484.34 102.05L484.36 101.45L484.42 100.85L484.53 100.26L484.67 99.68L484.85 99.11L485.07 98.56L485.33 98.02L485.62 97.51L485.96 97.02L486.34 96.56L486.76 96.12L487.22 95.72L487.71 95.36L488.25 95.03L488.82 94.75L489.44 94.51L490.09 94.32L490.79 94.18L491.52 94.09L492.29 94.06L492.39 94.06L492.65 94.07Z" id="bbovNnP9V"></path><path d="M90.67 497.12L90.99 497.15L91.31 497.19L91.62 497.24L91.93 497.31L92.24 497.39L92.54 497.48L92.84 497.59L93.13 497.7L93.42 497.82L93.7 497.96L93.97 498.11L94.24 498.26L94.5 498.43L94.75 498.61L95 498.79L95.24 498.99L95.47 499.19L95.69 499.4L95.91 499.62L96.11 499.85L96.31 500.09L96.5 500.33L96.68 500.58L96.85 500.84L97.01 501.11L97.16 501.38L97.3 501.66L97.43 501.94L97.55 502.23L97.66 502.53L97.75 502.83L97.84 503.13L97.91 503.45L97.97 503.76L98.02 504.08L98.05 504.4L98.08 504.73L98.08 505.06L98.29 533.02L129.63 501.68L129.87 501.45L130.11 501.24L130.36 501.03L130.62 500.84L130.89 500.66L131.16 500.49L131.43 500.33L131.71 500.18L131.99 500.05L132.28 499.92L132.57 499.81L132.86 499.71L133.16 499.62L133.46 499.55L133.76 499.48L134.07 499.43L134.37 499.39L134.68 499.36L134.99 499.34L135.3 499.34L135.6 499.34L135.91 499.36L136.22 499.39L136.52 499.43L136.83 499.48L137.13 499.55L137.43 499.62L137.73 499.71L138.02 499.81L138.31 499.92L138.6 500.05L138.88 500.18L139.16 500.33L139.44 500.49L139.71 500.66L139.97 500.84L140.23 501.03L140.48 501.24L140.73 501.45L140.97 501.68L141.2 501.92L141.41 502.17L141.62 502.42L141.81 502.68L142 502.94L142.17 503.21L142.32 503.48L142.47 503.76L142.61 504.05L142.73 504.34L142.84 504.63L142.94 504.92L143.03 505.22L143.11 505.52L143.17 505.82L143.22 506.13L143.26 506.43L143.29 506.74L143.31 507.05L143.32 507.35L143.31 507.66L143.29 507.97L143.26 508.28L143.22 508.58L143.17 508.89L143.11 509.19L143.03 509.49L142.94 509.79L142.84 510.08L142.73 510.37L142.61 510.66L142.47 510.94L142.32 511.22L142.17 511.5L142 511.77L141.81 512.03L141.62 512.29L141.41 512.54L141.2 512.79L140.97 513.02L109.63 544.36L137.59 544.56L138.36 544.6L139.09 544.69L139.79 544.84L140.44 545.03L141.05 545.28L141.63 545.56L142.16 545.89L142.65 546.26L143.11 546.67L143.52 547.1L143.9 547.57L144.23 548.06L144.53 548.58L144.78 549.12L145 549.67L145.17 550.24L145.31 550.82L145.41 551.41L145.47 552.01L145.48 552.61L145.46 553.21L145.4 553.81L145.3 554.4L145.16 554.98L144.98 555.55L144.76 556.1L144.5 556.64L144.2 557.15L143.86 557.64L143.48 558.11L143.07 558.54L142.61 558.94L142.11 559.31L141.58 559.63L141 559.92L140.39 560.15L139.73 560.35L139.04 560.49L138.31 560.57L137.53 560.6L137.44 560.6L137.18 560.6L136.76 560.6L136.19 560.59L135.48 560.59L134.64 560.58L133.68 560.57L132.6 560.56L131.41 560.56L130.13 560.55L128.77 560.54L127.32 560.53L125.8 560.51L124.22 560.5L122.59 560.49L120.91 560.48L119.2 560.47L115.71 560.44L112.18 560.41L108.69 560.39L106.97 560.38L105.3 560.36L103.67 560.35L102.09 560.34L100.57 560.33L99.12 560.32L97.75 560.31L96.47 560.3L95.29 560.29L94.21 560.28L93.24 560.27L92.4 560.27L91.69 560.26L91.13 560.26L90.71 560.26L90.45 560.25L90.35 560.25L90.03 560.24L89.7 560.22L89.38 560.19L89.06 560.14L88.75 560.08L88.44 560.01L88.14 559.93L87.84 559.83L87.55 559.73L87.26 559.61L86.98 559.49L86.71 559.35L86.44 559.2L86.17 559.04L85.92 558.88L85.67 558.7L85.42 558.51L85.19 558.32L84.96 558.12L84.74 557.91L84.53 557.69L84.33 557.46L84.13 557.22L83.95 556.98L83.77 556.73L83.6 556.47L83.44 556.21L83.3 555.94L83.16 555.66L83.03 555.38L82.92 555.09L82.81 554.8L82.72 554.5L82.64 554.2L82.56 553.89L82.5 553.58L82.46 553.26L82.42 552.94L82.4 552.62L82.39 552.29L82.05 505.17L82.05 504.84L82.07 504.52L82.1 504.19L82.14 503.87L82.2 503.56L82.27 503.25L82.35 502.94L82.44 502.64L82.54 502.34L82.66 502.05L82.78 501.76L82.92 501.48L83.06 501.21L83.22 500.94L83.39 500.68L83.56 500.43L83.75 500.18L83.94 499.94L84.14 499.71L84.36 499.49L84.58 499.27L84.8 499.07L85.04 498.87L85.28 498.68L85.54 498.5L85.79 498.33L86.06 498.17L86.33 498.02L86.61 497.88L86.89 497.75L87.18 497.63L87.48 497.53L87.78 497.43L88.08 497.35L88.39 497.27L88.71 497.21L89.03 497.16L89.35 497.13L89.68 497.11L90.01 497.1L90.34 497.1L90.67 497.12Z" id="a3mMzAF7JV"></path><path d="M526.3 497.13L526.63 497.16L526.95 497.21L527.27 497.27L527.58 497.34L527.89 497.42L528.19 497.51L528.49 497.62L528.78 497.74L529.07 497.87L529.35 498.01L529.62 498.16L529.89 498.32L530.15 498.49L530.4 498.66L530.65 498.85L530.88 499.05L531.11 499.26L531.34 499.47L531.55 499.7L531.75 499.93L531.95 500.17L532.14 500.42L532.31 500.67L532.48 500.93L532.64 501.2L532.79 501.47L532.92 501.75L533.05 502.04L533.16 502.33L533.27 502.63L533.36 502.94L533.44 503.24L533.51 503.56L533.56 503.87L533.61 504.19L533.64 504.52L533.66 504.85L533.66 505.18L533.32 552.3L533.31 552.62L533.29 552.95L533.25 553.27L533.2 553.58L533.14 553.9L533.07 554.2L532.99 554.51L532.9 554.81L532.79 555.1L532.68 555.39L532.55 555.67L532.41 555.94L532.26 556.21L532.11 556.48L531.94 556.73L531.76 556.98L531.58 557.23L531.38 557.46L531.18 557.69L530.97 557.91L530.75 558.12L530.52 558.32L530.29 558.52L530.04 558.7L529.79 558.88L529.54 559.05L529.27 559.2L529 559.35L528.73 559.49L528.45 559.62L528.16 559.73L527.86 559.84L527.57 559.93L527.26 560.01L526.96 560.09L526.64 560.14L526.33 560.19L526.01 560.23L525.68 560.25L525.36 560.26L478.24 560.61L477.46 560.58L476.72 560.49L476.02 560.35L475.36 560.16L474.74 559.92L474.16 559.64L473.62 559.31L473.12 558.94L472.66 558.54L472.24 558.11L471.86 557.65L471.52 557.16L471.22 556.64L470.95 556.1L470.73 555.55L470.55 554.98L470.41 554.4L470.31 553.81L470.25 553.21L470.23 552.61L470.24 552.02L470.3 551.42L470.4 550.83L470.54 550.25L470.71 549.68L470.93 549.12L471.18 548.58L471.48 548.07L471.82 547.57L472.19 547.11L472.61 546.67L473.06 546.27L473.55 545.9L474.09 545.57L474.66 545.28L475.27 545.04L475.93 544.84L476.62 544.69L477.35 544.6L478.12 544.57L506.08 544.36L474.75 513.02L474.52 512.79L474.3 512.54L474.09 512.29L473.9 512.03L473.72 511.77L473.55 511.5L473.39 511.22L473.24 510.94L473.11 510.66L472.98 510.37L472.87 510.08L472.77 509.79L472.68 509.49L472.61 509.19L472.54 508.89L472.49 508.58L472.45 508.28L472.42 507.97L472.4 507.66L472.4 507.36L472.4 507.05L472.42 506.74L472.45 506.43L472.49 506.13L472.54 505.82L472.61 505.52L472.68 505.22L472.77 504.92L472.87 504.63L472.98 504.34L473.11 504.05L473.24 503.77L473.39 503.49L473.55 503.21L473.72 502.94L473.9 502.68L474.09 502.42L474.3 502.17L474.52 501.92L474.75 501.69L474.98 501.46L475.23 501.24L475.48 501.03L475.74 500.84L476 500.66L476.27 500.49L476.54 500.33L476.82 500.18L477.11 500.05L477.39 499.92L477.68 499.81L477.98 499.71L478.28 499.62L478.58 499.55L478.88 499.48L479.18 499.43L479.49 499.39L479.79 499.36L480.1 499.34L480.41 499.34L480.72 499.34L481.03 499.36L481.33 499.39L481.64 499.43L481.94 499.48L482.24 499.55L482.54 499.62L482.84 499.71L483.14 499.81L483.43 499.92L483.72 500.05L484 500.18L484.28 500.33L484.55 500.49L484.82 500.66L485.09 500.84L485.35 501.03L485.6 501.24L485.84 501.46L486.08 501.69L517.42 533.02L517.62 505.06L517.63 504.73L517.66 504.41L517.69 504.08L517.74 503.77L517.8 503.45L517.87 503.14L517.95 502.84L518.05 502.54L518.16 502.25L518.27 501.96L518.4 501.67L518.54 501.4L518.69 501.13L518.85 500.86L519.02 500.61L519.19 500.35L519.38 500.11L519.58 499.88L519.78 499.65L520 499.43L520.22 499.22L520.45 499.01L520.68 498.82L520.93 498.63L521.18 498.46L521.44 498.29L521.7 498.13L521.98 497.99L522.25 497.85L522.54 497.73L522.83 497.61L523.12 497.51L523.42 497.41L523.73 497.33L524.04 497.26L524.35 497.21L524.67 497.16L524.99 497.13L525.31 497.11L525.64 497.1L525.97 497.11L526.3 497.13Z" id="aallf0Dw6"></path><path d="M138.99 85.63L139.69 85.77L140.35 85.96L140.97 86.2L141.55 86.49L142.09 86.81L142.59 87.18L143.05 87.58L143.47 88.01L143.85 88.47L144.19 88.97L144.5 89.48L144.76 90.02L144.98 90.57L145.16 91.14L145.3 91.72L145.4 92.31L145.46 92.91L145.48 93.51L145.47 94.11L145.41 94.7L145.31 95.29L145.17 95.88L145 96.45L144.78 97L144.52 97.54L144.23 98.06L143.89 98.55L143.52 99.02L143.1 99.45L142.65 99.86L142.15 100.22L141.62 100.55L141.05 100.84L140.43 101.09L139.78 101.28L139.09 101.43L138.36 101.52L137.59 101.55L109.63 101.76L140.96 133.09L141.19 133.33L141.41 133.58L141.62 133.83L141.81 134.09L141.99 134.35L142.16 134.62L142.32 134.89L142.47 135.17L142.6 135.46L142.73 135.75L142.84 136.04L142.94 136.33L143.03 136.63L143.1 136.93L143.17 137.23L143.22 137.54L143.26 137.84L143.29 138.15L143.31 138.45L143.31 138.76L143.31 139.07L143.29 139.38L143.26 139.68L143.22 139.99L143.17 140.29L143.1 140.6L143.03 140.9L142.94 141.19L142.84 141.49L142.73 141.78L142.6 142.07L142.47 142.35L142.32 142.63L142.16 142.91L141.99 143.18L141.81 143.44L141.62 143.7L141.41 143.95L141.19 144.2L140.96 144.43L140.73 144.66L140.48 144.88L140.23 145.09L139.97 145.28L139.71 145.46L139.44 145.63L139.17 145.79L138.89 145.94L138.6 146.07L138.32 146.19L138.03 146.3L137.73 146.4L137.43 146.49L137.13 146.57L136.83 146.63L136.53 146.69L136.22 146.73L135.92 146.76L135.61 146.78L135.3 146.78L134.99 146.78L134.69 146.76L134.38 146.73L134.07 146.69L133.77 146.64L133.47 146.57L133.17 146.49L132.87 146.41L132.57 146.31L132.28 146.2L131.99 146.07L131.71 145.94L131.43 145.79L131.16 145.63L130.89 145.46L130.62 145.28L130.36 145.09L130.11 144.88L129.87 144.66L129.63 144.43L98.29 113.1L98.08 141.06L98.07 141.39L98.05 141.71L98.02 142.03L97.97 142.35L97.91 142.67L97.84 142.97L97.75 143.28L97.66 143.58L97.55 143.87L97.43 144.16L97.31 144.44L97.17 144.72L97.02 144.99L96.86 145.26L96.69 145.51L96.51 145.77L96.32 146.01L96.13 146.24L95.92 146.47L95.71 146.69L95.49 146.9L95.26 147.11L95.02 147.3L94.78 147.49L94.53 147.66L94.27 147.83L94 147.99L93.73 148.13L93.45 148.27L93.17 148.4L92.88 148.51L92.58 148.61L92.28 148.71L91.98 148.79L91.67 148.86L91.36 148.92L91.04 148.96L90.72 148.99L90.39 149.01L90.06 149.02L89.73 149.01L89.4 148.99L89.08 148.96L88.76 148.91L88.44 148.85L88.13 148.78L87.82 148.7L87.51 148.61L87.22 148.5L86.93 148.38L86.64 148.25L86.36 148.11L86.09 147.97L85.82 147.81L85.56 147.64L85.31 147.46L85.06 147.27L84.82 147.07L84.59 146.86L84.37 146.65L84.16 146.42L83.95 146.19L83.76 145.95L83.57 145.71L83.39 145.45L83.23 145.19L83.07 144.92L82.92 144.65L82.78 144.37L82.66 144.08L82.54 143.79L82.44 143.49L82.35 143.19L82.27 142.88L82.2 142.57L82.14 142.25L82.1 141.93L82.07 141.6L82.05 141.27L82.05 140.94L82.39 93.82L82.4 93.5L82.42 93.17L82.46 92.85L82.5 92.54L82.56 92.22L82.63 91.92L82.72 91.61L82.81 91.32L82.91 91.02L83.03 90.73L83.16 90.45L83.29 90.18L83.44 89.91L83.6 89.64L83.77 89.39L83.94 89.14L84.13 88.89L84.32 88.66L84.53 88.43L84.74 88.21L84.96 88L85.18 87.8L85.42 87.6L85.66 87.42L85.91 87.24L86.17 87.07L86.43 86.92L86.7 86.77L86.98 86.63L87.26 86.5L87.55 86.39L87.84 86.28L88.14 86.19L88.44 86.11L88.75 86.04L89.06 85.98L89.38 85.93L89.7 85.9L90.02 85.87L90.35 85.86L137.47 85.52L138.25 85.55L138.99 85.63Z" id="b2xvlhgsvm"></path></defs><g><g><g><use xlink:href="#a5eaTYiVnJ" opacity="1" fill="#ffffff" fill-opacity="1"></use><g><use xlink:href="#a5eaTYiVnJ" opacity="1" fill-opacity="0" stroke="#000000" stroke-width="1" stroke-opacity="0"></use></g></g><g><use xlink:href="#g22D7sgxkv" opacity="1" fill="#ffffff" fill-opacity="1"></use><g><use xlink:href="#g22D7sgxkv" opacity="1" fill-opacity="0" stroke="#000000" stroke-width="1" stroke-opacity="0"></use></g></g><g><use xlink:href="#cuy7QKKVw" opacity="1" fill="#ffffff" fill-opacity="1"></use><g><use xlink:href="#cuy7QKKVw" opacity="1" fill-opacity="0" stroke="#000000" stroke-width="1" stroke-opacity="0"></use></g></g><g><use xlink:href="#bzRXCQE41" opacity="1" fill="#ffffff" fill-opacity="1"></use><g><use xlink:href="#bzRXCQE41" opacity="1" fill-opacity="0" stroke="#000000" stroke-width="1" stroke-opacity="0"></use></g></g><g><use xlink:href="#c7VHm4KfBc" opacity="1" fill="#ffffff" fill-opacity="1"></use><g><use xlink:href="#c7VHm4KfBc" opacity="1" fill-opacity="0" stroke="#000000" stroke-width="1" stroke-opacity="0"></use></g></g><g><use xlink:href="#bbovNnP9V" opacity="1" fill="#ffffff" fill-opacity="1"></use><g><use xlink:href="#bbovNnP9V" opacity="1" fill-opacity="0" stroke="#000000" stroke-width="1" stroke-opacity="0"></use></g></g><g><use xlink:href="#a3mMzAF7JV" opacity="1" fill="#ffffff" fill-opacity="1"></use><g><use xlink:href="#a3mMzAF7JV" opacity="1" fill-opacity="0" stroke="#000000" stroke-width="1" stroke-opacity="0"></use></g></g><g><use xlink:href="#aallf0Dw6" opacity="1" fill="#ffffff" fill-opacity="1"></use><g><use xlink:href="#aallf0Dw6" opacity="1" fill-opacity="0" stroke="#000000" stroke-width="1" stroke-opacity="0"></use></g></g><g><use xlink:href="#b2xvlhgsvm" opacity="1" fill="#ffffff" fill-opacity="1"></use><g><use xlink:href="#b2xvlhgsvm" opacity="1" fill-opacity="0" stroke="#000000" stroke-width="1" stroke-opacity="0"></use></g></g></g></g></svg>