<svg id="Layer_1" data-name="Layer 1" xmlns="http://www.w3.org/2000/svg" viewBox="0 0 251.06 355.12"><defs><style>.cls-1{fill:#fff;}</style></defs><title>tablet</title><path class="cls-1" d="M290.19,47.91H278.92a2.84,2.84,0,1,0,0,5.67h8.43V296.64c-.09-.09-.17-.26-.26-.35l-42.83-42.83a2.8,2.8,0,1,0-4,4l41.46,41.45H67.51V54.19L161.35,148a2.5,2.5,0,0,0,2,.86c.86,0,1.72-.26,2-.86a2.75,2.75,0,0,0,0-4L74.82,53.58H250.71a2.84,2.84,0,1,0,0-5.67h-186a2.67,2.67,0,0,0-2.84,2.84V301.63a2.67,2.67,0,0,0,2.84,2.84H290.19a2.67,2.67,0,0,0,2.84-2.84V50.74A2.71,2.71,0,0,0,290.19,47.91Z" transform="translate(-52.03)"/><path class="cls-1" d="M283.39,0H71.73C60.46,0,52,7.91,52,18.58v317.1a19.53,19.53,0,0,0,19.7,19.44H283.39a19.7,19.7,0,0,0,19.7-19.44V18.58C303.17,7.91,294.66,0,283.39,0Zm13.85,335.77h0a14,14,0,0,1-14.11,13.85H71.47a14.11,14.11,0,0,1-14.1-13.85V18.66c0-7.31,5.93-13,14.1-13H283.14c7.91,0,14.1,5.67,14.1,13V335.77Z" transform="translate(-52.03)"/><path class="cls-1" d="M192.65,323.64a2.79,2.79,0,0,0-5.41,1.38,11.2,11.2,0,0,1-1.38,8.43,10.5,10.5,0,0,1-6.79,5.07,11.15,11.15,0,0,1-8.43-1.37,10.5,10.5,0,0,1-5.08-6.8,11,11,0,0,1,8.17-13.24,15,15,0,0,1,4.82,0,2.85,2.85,0,0,0,1.12-5.59,15.07,15.07,0,0,0-7.31,0A16.8,16.8,0,0,0,160,331.82a16.86,16.86,0,0,0,16.34,12.9,6.79,6.79,0,0,0,4-.86,16.28,16.28,0,0,0,10.41-7.57A16.93,16.93,0,0,0,192.65,323.64Z" transform="translate(-52.03)"/><path class="cls-1" d="M197.13,25.37H157.65a2.67,2.67,0,0,0-2.84,2.84,2.71,2.71,0,0,0,2.84,2.84h39.48A2.66,2.66,0,0,0,200,28.21,2.66,2.66,0,0,0,197.13,25.37Z" transform="translate(-52.03)"/><path class="cls-1" d="M148.62,24.25a2.77,2.77,0,0,0-4,0,2.71,2.71,0,0,0,0,4,2.64,2.64,0,0,0,2,.86c.86,0,1.38-.6,2-.86a2.71,2.71,0,0,0,0-4Z" transform="translate(-52.03)"/><path class="cls-1" d="M207.28,186l-27.87-27.86a2.8,2.8,0,0,0-4,4L203.32,190a2.71,2.71,0,0,0,4,0A2.75,2.75,0,0,0,207.28,186Z" transform="translate(-52.03)"/><path class="cls-1" d="M232.65,241.85l-81.19-81.19a2.8,2.8,0,0,0-4,4l81.19,81.19a2.71,2.71,0,0,0,4,0A2.75,2.75,0,0,0,232.65,241.85Z" transform="translate(-52.03)"/></svg>