<?xml version="1.0"?>
<svg xmlns="http://www.w3.org/2000/svg" id="Capa_1" enable-background="new 0 0 510 510" height="512px" viewBox="0 0 510 510" width="512px" class=""><g><path d="m317.16 179.333v-31.102c0-8.284-6.716-15-15-15h-152.351c-8.284 0-15 6.716-15 15v31.102c0 8.284 6.716 15 15 15s15-6.716 15-15v-16.102h46.175v125.506h-10.493c-8.284 0-15 6.716-15 15s6.716 15 15 15h50.985c8.284 0 15-6.716 15-15s-6.716-15-15-15h-10.493v-125.506h46.175v16.102c0 8.284 6.716 15 15 15s15.002-6.716 15.002-15z" data-original="#000000" class="active-path" data-old_color="#000000" fill="#FFFDFD"/><path d="m505.607 438.451-58.978-58.979 33.909-33.909c8.649-8.649 3.83-23.534-8.292-25.427l-61.754-9.643v-199.582c23.882-6.587 41.479-28.489 41.479-54.437-.002-31.14-25.336-56.474-56.476-56.474-25.945 0-47.845 17.592-54.435 41.47h-230.151c-6.59-23.878-28.49-41.47-54.435-41.47-31.14 0-56.474 25.334-56.474 56.474 0 25.945 17.592 47.845 41.47 54.435v230.151c-23.878 6.59-41.47 28.49-41.47 54.435 0 31.14 25.334 56.474 56.474 56.474 25.948 0 47.85-17.596 54.437-41.479h199.583l9.643 61.754c1.89 12.106 16.768 16.954 25.427 8.292l33.909-33.909 58.979 58.978c5.857 5.858 15.355 5.859 21.213 0l45.942-45.942c5.857-5.857 5.857-15.354 0-21.212zm-110.112-408.451c14.598 0 26.474 11.876 26.474 26.474s-11.876 26.474-26.474 26.474-26.474-11.876-26.474-26.474 11.877-26.474 26.474-26.474zm-365.495 26.474c0-14.598 11.877-26.474 26.474-26.474s26.474 11.876 26.474 26.474-11.876 26.474-26.474 26.474-26.474-11.876-26.474-26.474zm26.474 365.495c-14.597 0-26.474-11.876-26.474-26.474s11.876-26.474 26.474-26.474 26.474 11.876 26.474 26.474-11.876 26.474-26.474 26.474zm54.434-41.479c-5.271-19.099-20.338-34.164-39.438-39.432v-230.147c19.103-5.269 34.171-20.338 39.441-39.441h230.147c5.268 19.1 20.333 34.167 39.432 39.438v194.902l-68.194-10.648c-10.028-1.571-18.701 7.102-17.134 17.134l10.648 68.194zm338.15 93.297-58.979-58.978c-5.857-5.858-15.355-5.859-21.213 0l-23.643 23.643-17.251-110.479 110.479 17.251-23.643 23.643c-5.858 5.858-5.858 15.355 0 21.213l58.978 58.979z" data-original="#000000" class="active-path" data-old_color="#000000" fill="#FFFDFD"/></g> </svg>
